<svg width="164" height="19" viewBox="0 0 164 19" fill="none" xmlns="http://www.w3.org/2000/svg">
<g opacity="0.6">
<path d="M35.12 5.64H29.008V9.048H33.776V10.248H29.008V15H27.728V4.44H35.12V5.64ZM39.7226 15.16C38.9653 15.16 38.288 14.9947 37.6906 14.664C37.104 14.3333 36.6453 13.8587 36.3146 13.24C35.984 12.6107 35.8186 11.864 35.8186 11C35.8186 10.136 35.984 9.39467 36.3146 8.776C36.6453 8.14667 37.0986 7.66667 37.6746 7.336C38.2506 7.00533 38.9066 6.84 39.6426 6.84C40.3893 6.84 41.024 7 41.5466 7.32C42.08 7.64 42.4853 8.07733 42.7626 8.632C43.04 9.176 43.1786 9.78933 43.1786 10.472C43.1786 10.6533 43.1733 10.8187 43.1626 10.968C43.152 11.1173 43.136 11.2507 43.1146 11.368H37.0826C37.1466 12.2107 37.408 12.8667 37.8666 13.336C38.3253 13.8053 38.9333 14.04 39.6906 14.04C40.2773 14.04 40.752 13.928 41.1146 13.704C41.488 13.48 41.7866 13.176 42.0106 12.792L43.0186 13.384C42.72 13.928 42.288 14.36 41.7226 14.68C41.168 15 40.5013 15.16 39.7226 15.16ZM39.6106 7.96C38.9386 7.96 38.384 8.16267 37.9466 8.568C37.52 8.96267 37.248 9.51733 37.1306 10.232H41.8986C41.8666 9.50667 41.6426 8.94667 41.2266 8.552C40.8106 8.15733 40.272 7.96 39.6106 7.96ZM48.957 15.16C48.1997 15.16 47.5223 14.9947 46.925 14.664C46.3383 14.3333 45.8797 13.8587 45.549 13.24C45.2183 12.6107 45.053 11.864 45.053 11C45.053 10.136 45.2183 9.39467 45.549 8.776C45.8797 8.14667 46.333 7.66667 46.909 7.336C47.485 7.00533 48.141 6.84 48.877 6.84C49.6237 6.84 50.2583 7 50.781 7.32C51.3143 7.64 51.7197 8.07733 51.997 8.632C52.2743 9.176 52.413 9.78933 52.413 10.472C52.413 10.6533 52.4077 10.8187 52.397 10.968C52.3863 11.1173 52.3703 11.2507 52.349 11.368H46.317C46.381 12.2107 46.6423 12.8667 47.101 13.336C47.5597 13.8053 48.1677 14.04 48.925 14.04C49.5117 14.04 49.9863 13.928 50.349 13.704C50.7223 13.48 51.021 13.176 51.245 12.792L52.253 13.384C51.9543 13.928 51.5223 14.36 50.957 14.68C50.4023 15 49.7357 15.16 48.957 15.16ZM48.845 7.96C48.173 7.96 47.6183 8.16267 47.181 8.568C46.7543 8.96267 46.4823 9.51733 46.365 10.232H51.133C51.101 9.50667 50.877 8.94667 50.461 8.552C50.045 8.15733 49.5063 7.96 48.845 7.96ZM57.7274 15.16C56.9487 15.16 56.2287 14.9947 55.5674 14.664C54.9167 14.3333 54.4154 13.864 54.0634 13.256L55.1514 12.472C55.386 12.9627 55.7274 13.3467 56.1754 13.624C56.634 13.9013 57.1834 14.04 57.8234 14.04C58.3887 14.04 58.8314 13.9333 59.1514 13.72C59.4714 13.496 59.6314 13.208 59.6314 12.856C59.6314 12.632 59.5567 12.4293 59.4074 12.248C59.2687 12.056 58.9967 11.9173 58.5914 11.832L56.6714 11.432C55.8927 11.272 55.3327 11.0053 54.9914 10.632C54.6607 10.2587 54.4954 9.79467 54.4954 9.24C54.4954 8.80267 54.618 8.40267 54.8634 8.04C55.1194 7.67733 55.4767 7.38933 55.9354 7.176C56.4047 6.952 56.954 6.84 57.5834 6.84C58.3727 6.84 59.0394 6.99467 59.5834 7.304C60.1274 7.61333 60.5327 8.05067 60.7994 8.616L59.7274 9.32C59.546 8.85067 59.2527 8.50933 58.8474 8.296C58.442 8.072 58.0207 7.96 57.5834 7.96C57.0074 7.96 56.5594 8.07733 56.2394 8.312C55.9194 8.54667 55.7594 8.84 55.7594 9.192C55.7594 9.42667 55.8394 9.64533 55.9994 9.848C56.1594 10.04 56.458 10.1787 56.8954 10.264L58.8954 10.68C59.642 10.8293 60.1647 11.0747 60.4634 11.416C60.762 11.7573 60.9114 12.1733 60.9114 12.664C60.9114 13.4213 60.618 14.0293 60.0314 14.488C59.4447 14.936 58.6767 15.16 57.7274 15.16ZM73.41 9.832C73.41 9.23467 73.25 8.776 72.93 8.456C72.61 8.12533 72.1567 7.96 71.57 7.96C71.0153 7.96 70.546 8.08267 70.162 8.328C69.778 8.56267 69.4953 8.94667 69.314 9.48L68.274 8.84C68.4873 8.24267 68.882 7.76267 69.458 7.4C70.034 7.02667 70.7487 6.84 71.602 6.84C72.178 6.84 72.7007 6.94133 73.17 7.144C73.6393 7.336 74.0073 7.63467 74.274 8.04C74.5513 8.43467 74.69 8.94667 74.69 9.576V13.448C74.69 13.832 74.8927 14.024 75.298 14.024C75.5007 14.024 75.698 13.9973 75.89 13.944L75.826 14.952C75.6127 15.0587 75.3353 15.112 74.994 15.112C74.5993 15.112 74.258 15.016 73.97 14.824C73.6927 14.632 73.5113 14.3387 73.426 13.944C73.1487 14.36 72.77 14.6693 72.29 14.872C71.81 15.064 71.3353 15.16 70.866 15.16C70.3967 15.16 69.9593 15.08 69.554 14.92C69.1487 14.76 68.8233 14.52 68.578 14.2C68.3433 13.8693 68.226 13.464 68.226 12.984C68.226 12.3867 68.4233 11.896 68.818 11.512C69.2233 11.1173 69.7833 10.8507 70.498 10.712L73.41 10.136V9.832ZM69.538 12.92C69.538 13.2507 69.666 13.5227 69.922 13.736C70.1887 13.9387 70.562 14.04 71.042 14.04C71.458 14.04 71.842 13.9707 72.194 13.832C72.5567 13.6827 72.85 13.464 73.074 13.176C73.298 12.8773 73.41 12.4987 73.41 12.04V11.192L71.09 11.672C70.5673 11.7787 70.178 11.928 69.922 12.12C69.666 12.312 69.538 12.5787 69.538 12.92ZM77.8005 15V7H78.9205L79.0005 8.248C79.2778 7.74667 79.6565 7.38933 80.1365 7.176C80.6165 6.952 81.1338 6.84 81.6885 6.84C82.2645 6.84 82.7872 6.952 83.2565 7.176C83.7258 7.38933 84.0992 7.72 84.3765 8.168C84.6645 8.616 84.8085 9.18667 84.8085 9.88V15H83.5285V10.328C83.5285 9.44267 83.3365 8.82933 82.9525 8.488C82.5792 8.136 82.1152 7.96 81.5605 7.96C81.1765 7.96 80.7925 8.05067 80.4085 8.232C80.0245 8.41333 79.7045 8.70667 79.4485 9.112C79.2032 9.51733 79.0805 10.0613 79.0805 10.744V15H77.8005ZM90.8268 15.16C90.1654 15.16 89.5574 14.9947 89.0028 14.664C88.4481 14.3333 88.0054 13.8587 87.6748 13.24C87.3441 12.6107 87.1788 11.864 87.1788 11C87.1788 10.1147 87.3548 9.36267 87.7068 8.744C88.0588 8.12533 88.5228 7.656 89.0988 7.336C89.6748 7.00533 90.2934 6.84 90.9548 6.84C91.5308 6.84 92.0428 6.97333 92.4908 7.24C92.9388 7.496 93.2694 7.848 93.4828 8.296V3.32H94.7628V15H93.6428L93.5628 13.496C93.3388 14.04 92.9761 14.456 92.4748 14.744C91.9734 15.0213 91.4241 15.16 90.8268 15.16ZM90.9548 14.04C91.7121 14.04 92.3201 13.7573 92.7788 13.192C93.2481 12.6267 93.4828 11.8587 93.4828 10.888C93.4828 9.97067 93.2534 9.256 92.7948 8.744C92.3361 8.22133 91.7441 7.96 91.0188 7.96C90.2081 7.96 89.5788 8.23733 89.1308 8.792C88.6828 9.34667 88.4588 10.0827 88.4588 11C88.4588 11.9173 88.6774 12.6533 89.1148 13.208C89.5521 13.7627 90.1654 14.04 90.9548 14.04ZM111.943 12.296C111.612 13.2027 111.068 13.9067 110.311 14.408C109.554 14.9093 108.679 15.16 107.687 15.16C106.684 15.16 105.815 14.9413 105.079 14.504C104.354 14.056 103.788 13.4267 103.383 12.616C102.988 11.8053 102.791 10.84 102.791 9.72C102.791 8.6 102.988 7.63467 103.383 6.824C103.788 6.01333 104.354 5.38933 105.079 4.952C105.815 4.504 106.674 4.28 107.655 4.28C108.679 4.28 109.532 4.49333 110.215 4.92C110.908 5.336 111.42 5.944 111.751 6.744L110.487 7.336C110.252 6.728 109.911 6.26933 109.463 5.96C109.026 5.64 108.455 5.48 107.751 5.48C107.036 5.48 106.407 5.65067 105.863 5.992C105.319 6.32267 104.892 6.80267 104.583 7.432C104.284 8.06133 104.135 8.824 104.135 9.72C104.135 11.0427 104.45 12.0827 105.079 12.84C105.719 13.5867 106.588 13.96 107.687 13.96C108.391 13.96 109.004 13.784 109.527 13.432C110.05 13.0693 110.428 12.5307 110.663 11.816L111.943 12.296ZM114.16 15V3.32H115.44V8.2C115.717 7.72 116.085 7.37333 116.544 7.16C117.003 6.94667 117.504 6.84 118.048 6.84C118.624 6.84 119.147 6.952 119.616 7.176C120.085 7.38933 120.459 7.72 120.736 8.168C121.024 8.616 121.168 9.18667 121.168 9.88V15H119.888V10.328C119.888 9.44267 119.696 8.82933 119.312 8.488C118.939 8.136 118.475 7.96 117.92 7.96C117.536 7.96 117.152 8.05067 116.768 8.232C116.384 8.41333 116.064 8.712 115.808 9.128C115.563 9.53333 115.44 10.0773 115.44 10.76V15H114.16ZM128.738 9.832C128.738 9.23467 128.578 8.776 128.258 8.456C127.938 8.12533 127.485 7.96 126.898 7.96C126.343 7.96 125.874 8.08267 125.49 8.328C125.106 8.56267 124.823 8.94667 124.642 9.48L123.602 8.84C123.815 8.24267 124.21 7.76267 124.786 7.4C125.362 7.02667 126.077 6.84 126.93 6.84C127.506 6.84 128.029 6.94133 128.498 7.144C128.967 7.336 129.335 7.63467 129.602 8.04C129.879 8.43467 130.018 8.94667 130.018 9.576V13.448C130.018 13.832 130.221 14.024 130.626 14.024C130.829 14.024 131.026 13.9973 131.218 13.944L131.154 14.952C130.941 15.0587 130.663 15.112 130.322 15.112C129.927 15.112 129.586 15.016 129.298 14.824C129.021 14.632 128.839 14.3387 128.754 13.944C128.477 14.36 128.098 14.6693 127.618 14.872C127.138 15.064 126.663 15.16 126.194 15.16C125.725 15.16 125.287 15.08 124.882 14.92C124.477 14.76 124.151 14.52 123.906 14.2C123.671 13.8693 123.554 13.464 123.554 12.984C123.554 12.3867 123.751 11.896 124.146 11.512C124.551 11.1173 125.111 10.8507 125.826 10.712L128.738 10.136V9.832ZM124.866 12.92C124.866 13.2507 124.994 13.5227 125.25 13.736C125.517 13.9387 125.89 14.04 126.37 14.04C126.786 14.04 127.17 13.9707 127.522 13.832C127.885 13.6827 128.178 13.464 128.402 13.176C128.626 12.8773 128.738 12.4987 128.738 12.04V11.192L126.418 11.672C125.895 11.7787 125.506 11.928 125.25 12.12C124.994 12.312 124.866 12.5787 124.866 12.92ZM133.129 15V7H134.169L134.345 8.312C134.793 7.33067 135.646 6.84 136.905 6.84C137.043 6.84 137.193 6.85067 137.353 6.872C137.523 6.89333 137.667 6.936 137.785 7L137.561 8.168C137.443 8.12533 137.315 8.09333 137.177 8.072C137.038 8.05067 136.841 8.04 136.585 8.04C136.254 8.04 135.918 8.136 135.577 8.328C135.246 8.52 134.969 8.81333 134.745 9.208C134.521 9.592 134.409 10.0827 134.409 10.68V15H133.129ZM143.558 13.976C144.315 13.976 144.907 14.152 145.334 14.504C145.76 14.8453 145.974 15.304 145.974 15.88C145.974 16.4027 145.798 16.856 145.446 17.24C145.104 17.624 144.64 17.9173 144.054 18.12C143.478 18.3333 142.827 18.44 142.102 18.44C140.843 18.44 139.899 18.2267 139.27 17.8C138.651 17.3733 138.342 16.8613 138.342 16.264C138.342 15.9013 138.443 15.5707 138.646 15.272C138.848 14.9733 139.184 14.76 139.654 14.632C139.398 14.5147 139.19 14.3547 139.03 14.152C138.87 13.9387 138.79 13.656 138.79 13.304C138.79 12.9733 138.886 12.6747 139.078 12.408C139.27 12.1307 139.558 11.9173 139.942 11.768C139.536 11.5333 139.227 11.224 139.014 10.84C138.8 10.456 138.694 10.024 138.694 9.544C138.694 9.01067 138.832 8.54133 139.11 8.136C139.398 7.73067 139.787 7.416 140.278 7.192C140.768 6.95733 141.334 6.84 141.974 6.84C142.646 6.84 143.248 6.97333 143.782 7.24C143.856 6.70667 144.091 6.29067 144.486 5.992C144.891 5.68267 145.366 5.528 145.91 5.528H145.99L146.278 6.664H146.166C145.675 6.664 145.291 6.75467 145.014 6.936C144.736 7.11733 144.582 7.4 144.55 7.784C145.019 8.27467 145.254 8.86133 145.254 9.544C145.254 10.0667 145.115 10.536 144.838 10.952C144.56 11.3573 144.171 11.6773 143.67 11.912C143.179 12.136 142.614 12.248 141.974 12.248C141.579 12.248 141.211 12.2107 140.87 12.136C140.55 12.232 140.32 12.3653 140.182 12.536C140.043 12.7067 139.974 12.8933 139.974 13.096C139.974 13.6827 140.39 13.976 141.222 13.976H143.558ZM141.974 7.88C141.419 7.88 140.955 8.03467 140.582 8.344C140.208 8.64267 140.022 9.04267 140.022 9.544C140.022 10.0347 140.208 10.4347 140.582 10.744C140.955 11.0533 141.419 11.208 141.974 11.208C142.528 11.208 142.992 11.0533 143.366 10.744C143.739 10.4347 143.926 10.0347 143.926 9.544C143.926 9.04267 143.739 8.64267 143.366 8.344C142.992 8.03467 142.528 7.88 141.974 7.88ZM142.086 17.368C143.014 17.368 143.696 17.2293 144.134 16.952C144.571 16.6853 144.79 16.376 144.79 16.024C144.79 15.736 144.672 15.5067 144.438 15.336C144.214 15.1653 143.803 15.08 143.206 15.08H140.742C140.4 15.08 140.112 15.1653 139.878 15.336C139.643 15.5173 139.526 15.7627 139.526 16.072C139.526 16.4667 139.75 16.7813 140.198 17.016C140.656 17.2507 141.286 17.368 142.086 17.368ZM151.113 15.16C150.356 15.16 149.679 14.9947 149.081 14.664C148.495 14.3333 148.036 13.8587 147.705 13.24C147.375 12.6107 147.209 11.864 147.209 11C147.209 10.136 147.375 9.39467 147.705 8.776C148.036 8.14667 148.489 7.66667 149.065 7.336C149.641 7.00533 150.297 6.84 151.033 6.84C151.78 6.84 152.415 7 152.937 7.32C153.471 7.64 153.876 8.07733 154.153 8.632C154.431 9.176 154.569 9.78933 154.569 10.472C154.569 10.6533 154.564 10.8187 154.553 10.968C154.543 11.1173 154.527 11.2507 154.505 11.368H148.473C148.537 12.2107 148.799 12.8667 149.257 13.336C149.716 13.8053 150.324 14.04 151.081 14.04C151.668 14.04 152.143 13.928 152.505 13.704C152.879 13.48 153.177 13.176 153.401 12.792L154.409 13.384C154.111 13.928 153.679 14.36 153.113 14.68C152.559 15 151.892 15.16 151.113 15.16ZM151.001 7.96C150.329 7.96 149.775 8.16267 149.337 8.568C148.911 8.96267 148.639 9.51733 148.521 10.232H153.289C153.257 9.50667 153.033 8.94667 152.617 8.552C152.201 8.15733 151.663 7.96 151.001 7.96ZM159.884 15.16C159.105 15.16 158.385 14.9947 157.724 14.664C157.073 14.3333 156.572 13.864 156.22 13.256L157.308 12.472C157.542 12.9627 157.884 13.3467 158.332 13.624C158.79 13.9013 159.34 14.04 159.98 14.04C160.545 14.04 160.988 13.9333 161.308 13.72C161.628 13.496 161.788 13.208 161.788 12.856C161.788 12.632 161.713 12.4293 161.564 12.248C161.425 12.056 161.153 11.9173 160.748 11.832L158.828 11.432C158.049 11.272 157.489 11.0053 157.148 10.632C156.817 10.2587 156.652 9.79467 156.652 9.24C156.652 8.80267 156.774 8.40267 157.02 8.04C157.276 7.67733 157.633 7.38933 158.092 7.176C158.561 6.952 159.11 6.84 159.74 6.84C160.529 6.84 161.196 6.99467 161.74 7.304C162.284 7.61333 162.689 8.05067 162.956 8.616L161.884 9.32C161.702 8.85067 161.409 8.50933 161.004 8.296C160.598 8.072 160.177 7.96 159.74 7.96C159.164 7.96 158.716 8.07733 158.396 8.312C158.076 8.54667 157.916 8.84 157.916 9.192C157.916 9.42667 157.996 9.64533 158.156 9.848C158.316 10.04 158.614 10.1787 159.052 10.264L161.052 10.68C161.798 10.8293 162.321 11.0747 162.62 11.416C162.918 11.7573 163.068 12.1733 163.068 12.664C163.068 13.4213 162.774 14.0293 162.188 14.488C161.601 14.936 160.833 15.16 159.884 15.16Z" fill="#213F7D"/>
<g clip-path="url(#clip0_15437_701)">
<path d="M0 14.6656V16C0 17.1031 2.6875 18 6 18C9.3125 18 12 17.1031 12 16V14.6656C10.7094 15.575 8.35 16 6 16C3.65 16 1.29062 15.575 0 14.6656ZM10 6C13.3125 6 16 5.10313 16 4C16 2.89688 13.3125 2 10 2C6.6875 2 4 2.89688 4 4C4 5.10313 6.6875 6 10 6ZM0 11.3875V13C0 14.1031 2.6875 15 6 15C9.3125 15 12 14.1031 12 13V11.3875C10.7094 12.45 8.34688 13 6 13C3.65313 13 1.29062 12.45 0 11.3875ZM13 11.7312C14.7906 11.3844 16 10.7406 16 10V8.66563C15.275 9.17812 14.2094 9.52813 13 9.74375V11.7312ZM6 7C2.6875 7 0 8.11875 0 9.5C0 10.8813 2.6875 12 6 12C9.3125 12 12 10.8813 12 9.5C12 8.11875 9.3125 7 6 7ZM12.8531 8.75938C14.7281 8.42188 16 7.75938 16 7V5.66563C14.8906 6.45 12.9844 6.87188 10.9781 6.97188C11.9 7.41875 12.5781 8.01875 12.8531 8.75938Z" fill="#213F7D"/>
</g>
</g>
<defs>
<clipPath id="clip0_15437_701">
<rect width="16" height="16" fill="white" transform="translate(0 2)"/>
</clipPath>
</defs>
</svg>
