<svg width="13" height="8" viewBox="0 0 13 8" fill="none" xmlns="http://www.w3.org/2000/svg">
<path d="M1.42389 7.09778C1.33809 7.08034 1.25657 7.04618 1.18397 6.99724C1.11138 6.9483 1.04913 6.88554 1.0008 6.81254C0.952457 6.73954 0.918971 6.65774 0.902249 6.5718C0.885526 6.48586 0.885895 6.39746 0.903335 6.31167C0.965002 5.995 1.26111 5.77778 1.58333 5.77778H1.61111C1.65532 5.77778 1.69771 5.76022 1.72896 5.72896C1.76022 5.69771 1.77778 5.65531 1.77778 5.61111V5.05556C1.77778 5.01135 1.76022 4.96896 1.72896 4.9377C1.69771 4.90645 1.65532 4.88889 1.61111 4.88889C0.819446 4.88889 0.11389 5.45556 0.0130571 6.23944C0.00426675 6.30603 -9.46853e-05 6.37312 1.5585e-06 6.44028C-0.000514501 6.85338 0.163075 7.24977 0.454791 7.54227C0.746506 7.83476 1.14246 7.99941 1.55556 8H2.66667C2.66696 7.70126 2.69833 7.40336 2.76028 7.11111H1.55556C1.51133 7.11111 1.46722 7.10665 1.42389 7.09778ZM12 7.11111C11.9121 7.11111 11.8262 7.13718 11.7531 7.18601C11.68 7.23485 11.623 7.30426 11.5894 7.38547C11.5557 7.46669 11.5469 7.55605 11.5641 7.64226C11.5812 7.72848 11.6236 7.80767 11.6857 7.86983C11.7479 7.93198 11.8271 7.97431 11.9133 7.99146C11.9995 8.00861 12.0889 7.99981 12.1701 7.96617C12.2513 7.93253 12.3207 7.87556 12.3695 7.80248C12.4184 7.72939 12.4444 7.64346 12.4444 7.55556C12.4444 7.43768 12.3976 7.32464 12.3143 7.24129C12.2309 7.15794 12.1179 7.11111 12 7.11111ZM8.51389 8.07944e-08C8.07588 -0.000107729 7.64458 0.107681 7.25812 0.313839C6.87166 0.519998 6.54192 0.818179 6.29807 1.18203C6.05421 1.54588 5.90373 1.9642 5.85993 2.40002C5.81613 2.83584 5.88036 3.27573 6.04695 3.68083C6.39544 3.59701 6.75268 3.55495 7.11111 3.55556H10.6667C10.7847 3.5565 10.9026 3.56467 11.0197 3.58C11.1662 3.17708 11.2134 2.74481 11.1574 2.31977C11.1014 1.89473 10.9438 1.48944 10.698 1.13821C10.4522 0.786988 10.1253 0.500171 9.74512 0.302042C9.36493 0.103914 8.94261 0.000309799 8.51389 8.07944e-08Z" fill="#213F7D"/>
</svg>
